<?xml version="1.0" encoding="utf-8"?>
<!-- Generator: Adobe Illustrator 23.0.0, SVG Export Plug-In . SVG Version: 6.00 Build 0)  -->
<svg version="1.1" id="Layer_1" xmlns="http://www.w3.org/2000/svg" xmlns:xlink="http://www.w3.org/1999/xlink" x="0px" y="0px"
	 viewBox="0 0 344 119.9" style="enable-background:new 0 0 344 119.9;" xml:space="preserve">
<style type="text/css">
	.st0{fill:none;stroke:#F2BE4F;stroke-miterlimit:10;}
</style>
<polygon class="st0" points="40.7,27.6 50.2,46.8 71.4,49.9 56,64.8 59.6,85.9 40.7,76 21.7,85.9 25.3,64.8 10,49.9 31.2,46.8 "/>
<polygon class="st0" points="107.3,27.6 116.7,46.8 137.9,49.9 122.6,64.8 126.2,85.9 107.3,76 88.3,85.9 91.9,64.8 76.6,49.9 
	97.8,46.8 "/>
<polygon class="st0" points="173.8,27.6 183.3,46.8 204.5,49.9 189.2,64.8 192.8,85.9 173.8,76 154.9,85.9 158.5,64.8 143.2,49.9 
	164.4,46.8 "/>
<polygon class="st0" points="240.4,27.6 249.9,46.8 271.1,49.9 255.8,64.8 259.4,85.9 240.4,76 221.4,85.9 225.1,64.8 209.7,49.9 
	230.9,46.8 "/>
<polygon class="st0" points="307,27.6 316.5,46.8 337.7,49.9 322.3,64.8 325.9,85.9 307,76 288,85.9 291.6,64.8 276.3,49.9 
	297.5,46.8 "/>
</svg>
